<?xml version="1.0" encoding="UTF-8"?>
<svg id="Layer_1" data-name="Layer 1" xmlns="http://www.w3.org/2000/svg" viewBox="0 0 180.84 45.52">
  <defs>
    <style>
      .cls-1 {
        fill: none;
        stroke: #fff;
        stroke-miterlimit: 10;
        stroke-width: .28px;
      }
    </style>
  </defs>
  <path class="cls-1" d="M31.02.14v12c-1.52-.12-3.16,0-2.88,1.92-.16.19-2.8-1.2-3-1.2h-3.96l.12-1.21,2.76-.23c.18.18-.41,1.46.48,1.2l-.23-1.58-2.17-.1-.24-4.8c-.68,1.18-.05,3.51-.48,5.04l-3.44-.22-.36.37-.03,1.77h-1.92s0-2.4,0-2.4h-5.04v27.36h.24V11.18h3.36v26.88h.48V11.18h.72s0,2.4,0,2.4h2.16s0,1.44,0,1.44h-.96s0,23.04,0,23.04h.48V15.26c.16-.02.48.32.48.36v22.44h.48V11.42h2.88v26.64c1.03-2.47.08-21.12.26-24.32.24-.77,2.85-.25,3.58-.4v24.72h.48V13.58l4.08,1.56v23.16c.39-1.24.33-4.22.24-5.52h1.2v3.36h.24v-3.84c-.5-.11-1.64.38-1.44-.48h3.12s0,1.2,0,1.2l-.96.12.96.36-.96.6.96.36-.96.6.96.36-.96.6.96.36-.96.96h.96s-.96.96-.96.96h.96s-.96.96-.96.96l.96.48-.96.48h.96s.24.96.24.96v-9.84h-3.36V14.7s-.93-.43-.93-.43l-.03-1.41h.72s.24.72.24.72l.23-1.09c1.95.11,3.18-.87,2.89,1.81-.14.14-1.76-.33-1.92.48.5.05,1.7-.23,1.9.39l-.21.95-1.69.11c.16.81,1.79.34,1.92.48v1.2c-.64.04-1.44-.22-1.92.36l1.92.12c.31,1.64-.74,1.44-1.92,1.44.26.82,1.13-.06,1.7.34l.22,1.34c-2.62-.23-2.73.7,0,.48.32,1.6-.77,1.46-1.92,1.56l1.7.22.23,1.34h-1.92c.16.81,1.79.34,1.92.48v1.2c-.14.14-1.76-.33-1.92.48,1.2-.19,2.74.13,1.52,1.41l-1.52.15c.48.58,1.28.32,1.92.36l.24,1.2v-13.68l3.36.24v15.6c1.05.24.11-2.33.62-2.4h1.3c.25.25-.53,2.58.48,2.4l-.24-3.84h.96s0,1.44,0,1.44l2.42.1.23,2.05.46-2.05,1.7-.1v3.36h.48v-3.48l-.4-.33-1.78.1-.23-1.57h-4.08l-.02,1.42-1.42.02v-12.96l-3.84-.48.02-13.55-.75-.26.02-2.27h-1.2ZM25.74,14.3v12h.48v-12h-.48ZM15.66,15.02h-.24v12h.24v-12ZM164.46,16.22c-1.33.33-2.19.32-2.18,1.89l-1.18.03c.36.68,1.58.61,1.8-.24l.12.73,3.49-.08.48-.9.81.05.15.71,2.27-.02c.32-1.03-.5-1.11-.49-1.92-.59.44-.33-.21-.81-.27-1.13-.14-2.56.14-3.74.02.46.76-.76.49-.48,1.44.89.26.97-.94,1.09-.97,1.07-.02,3.66-.39,3.94,1.21-.97.44-1.51-.45-1.6-.47-.48-.11-1.11.06-1.62-.02l-.26.75h-2.84s-.39-.97-.39-.97c.36.38,1.81-.65,1.44-.96ZM33.9,32.54v-14.4c-.16-.02-.48.32-.48.36v14.04h.48ZM34.38,18.14v14.4h.48v-14.4h-.48ZM35.34,18.14v14.4h.48v-14.4h-.48ZM169.98,34.22v-15.24l-.4-.32-1.52-.04v15.36h.48v-14.88h.96v15.12h.48ZM161.34,19.1v15.12h.24v-14.64c0-.06.97.05.96-.48h-1.2ZM163.02,19.1v13.92h.24v-13.44h.96c.19.41-.48.73-.48.84v13.44c0,.06-.57.78-.63,1.1-1.02.12-2.42-.38-3.21.34v3.72h.48v-3.6h3.36v-.96s2.26,0,2.26,0l.14.96h3.6c-.28-.95-2.9-.25-3.12-.48v-.96s-.96,0-.96,0v-14.4h.96v12.48h.24v-12.96h-1.68s.24,14.88.24,14.88h-1.2s0-13.44,0-13.44c0-.09.89,0,.48-1.44h-1.68ZM27.18,19.34l-.48.36c.19,3.75-.29,8.26.48,11.64v-12ZM129.66,19.34h-4.44l-.39.92-1.17.04c.13.66,1.76,1.04,1.92,1.2.58.58-.83.43-.92.51s-.12.9-.52,1.05c1.41.62-.33.41.01,1.07h.46s0,.49,0,.49l-.48.12.48.12v.48s-.48.12-.48.12l.02.35h.46s0,.49,0,.49h-.48c-.07.08.82.64,0,1.2h.48s0,.48,0,.48l-.48.13v.35s.48.01.48.01v.48s-.48.12-.48.12l.48.12v.36s-.47.13-.47.13v.35s.46.13.46.13v.47s-.46.01-.46.01v.47s.47,0,.47,0l-.48.72h.48s0,.36,0,.36l-.47.13-.02.35.48.12v.48s-.48.12-.48.12l.49.27v2c.98.16.15-1.74.85-2.29.05-.39-.9-1.53.11-1.67-.4-.31-.78-1.75,0-1.57-.71-.6-.08-.86-.11-1.07-.06-.46-.82-1.67.11-1.56-.37-.54-.65-.59,0-1.08-.96-.17-.12-1.15-.12-1.68,0-.43-.39-1.7-.36-2.28h4.32v8.99s.48.13.48.13l.49-.84-.48-.12c-.23-.82.71-.16.47-.95h-.46s0-.49,0-.49l.48-.12-.48-.12v-.48s.48-.12.48-.12l-.02-.35h-.46s0-.49,0-.49h.48c.07-.08-.82-.64,0-1.2h-.48s0-.48,0-.48l.48-.13v-.35s-.48-.01-.48-.01v-.48s.48-.12.48-.12l-.48-.12v-.36s.47-.13.47-.13v-.35s-.46-.13-.46-.13v-.35c1.18-.45.18-.53.07-.69-.13-.19-.04-.53-.1-.6-.25-.24-1.15.34-.93-.51l2.16-1.2h-1.44s0-.96,0-.96ZM54.78,23.9l-.86.24.14.72c-1.98-.21-1.44,2.06-1.68,3.21-.05.25-.74,0-.48.63h3.12s0,2.88,0,2.88c.64-.36.05-1.9.24-2.64l1.44.36c.71.26-.36,3.81.72,3.24-.15-1.46.59-3.23-.92-3.99-.38-1.11.45-3.83-1.96-3.69l.24-.96ZM28.23,24.38h-.33v12h.33v-12ZM59.82,32.54v-6.24c.47-.18,2.1.42,2.16-.36-1.03.13-.48-1.24-1.32-.84-.21.1-.36.85-1.09.86.41,2.01-.86,5.04.25,6.58ZM68.46,25.34h-1.68s0,1.44,0,1.44h-5.04v5.76c.92.19.32-4.94.48-5.28h.72v6.96h.48v-6.96h3.36v3.84h.48v-5.28h.72c-.04.28.06,5.97,0,6h.48s0-6.48,0-6.48ZM9.42,26.54h-3.6v5.04c.99.25.24-1.92.48-2.16h2.88c.2.2-.44,1.71.48,1.44v-1.92s-3.36,0-3.36,0v-1.92c.09-.25,3.78.5,3.12-.48ZM109.26,28.1c.2.31-.51,8.81.48,8.52v-8.4h.96c0-.5-.16-1.13.38-1.43l.83.39-.04,1.26-.71.15c.52,1.75-.93,7.54.5,8.03v-7.68h1.92v7.68c.94.38.31-7.56.48-7.8-.39-.54-1.1-.34-1.68-.36v-1.92s-1.92,0-1.92,0v1.19s-1.2.37-1.2.37ZM136.14,28.46v3.6c.96-.29.24-2.89.48-3.12l1.7-.1.22-1.58h1.2c-.36,1.72,1.18.82.72,3.6.76-.3,1.96-.36,2.78-.26.57.07.1.68.82.5v-.84s-3.13-.23-3.13-.23v-1.81s-.68-.01-.68-.01l-.04-1.17h-2.14s0,1.42,0,1.42h-1.92ZM85.02,27.26h-4.32v.96s-1.68,0-1.68,0v4.32h.48v-3.84h1.68s0-.96,0-.96h3.6v.85s1.2.11,1.2.11v12.48h.48v-6.72l.85.23.11,1.69h4.08v-.48h-3.84v-1.68s-1.2,0-1.2,0v-6h-1.44s0-.96,0-.96ZM146.94,28.82c-.46,1.63.34,5.43,0,7.32h.48v-7.32c0-.08,1.08-.84,1.33-.85l.59.37v4.92c.83-.33-.39-5.23.72-5.28v2.4c.71.93.4-2.07.48-2.16,2.08-.21.13,3.16,1.32,3.36v-3.37c-1.54-.89-3.92-1.07-4.92.61ZM74.94,27.74h-4.68l-.36.36c.16.4-.43,4.04.48,3.96v-3.84h3.96l.37.6c.06,1.19-.95,4.88.23,5.4l.14-2.16h1.3s0,2.16,0,2.16c.85-.42.36-1.8.48-2.64h-1.92s0-3.84,0-3.84ZM51.18,28.22h-5.52v5.28h.48v-4.8h4.56v4.8h.48v-5.28ZM108.78,28.94h-4.08v8.16c-.63.11-7.98-.36-8.16.48,0,0,0,4.56,0,4.56h.48v-4.2l.36-.36h12c1.08,0,.44,6.41.6,6.96h.48v-6.6c0-.06-.78-.84-.84-.84h-4.44v-7.92h1.2s-.02.94-.02.94l-.7.14.72.12v.48s-.72.12-.72.12l.72.12-.72.24v.48l.72.24-.72.12.72.48-.72.24c0,.09,1.83.27,0,.72l.72.24-.72.48.72.12-.72.24v.48l.72.24-.72.12.71.13.13.95.12-.96.72.96c-.02-.54-.18-1.07.48-.96l-.48-.24.48-.36-.48-.6.48-.12-.48-.12v-.48s.48-.12.48-.12l-.48-.12v-.48l.48-.12-.48-.12v-.48s.48-.12.48-.12l-.48-.12.48-.6-.48-.36.48-.12-.48-.12v-.48s.48-.12.48-.12l-.49-.27v-.8s.96,0,.96,0v7.44h.48v-7.68ZM15.66,39.02v-9.6h-.24v9.6H2.82c-.61-.04-.51,5.76.12,5.52v-5.04h12.48v1.2s-1.44,0-1.44,0c.34,1.19-.65,3.07.24,3.84v-3.36h2.4s0,2.4,0,2.4h1.68c.15.15-.38,1.19.48.96v-1.44s-1.68,0-1.68,0v-2.4s-1.21-.1-1.21-.1l-.22-1.1h13.68v5.04h.24v-5.52h-13.92ZM74.22,31.34h-3.36v1.2h-3.6l-.03.68-1.07.26-.1,1.22h-7.68v-1.2h3.36v.72s.48-.84.48-.84l-.36-.36h-3.96v1.68s-.96,0-.96,0v9.84h.48v-9.36h14.16v6.72h.48v-6.72h3.12s0,.72,0,.72c-.6.2-2.44-.46-2.4.36l2.64.12c-.13,1.07-3.19-.13-2.64.96.28.16,2.65-.44,2.63.12-.3.71-2.64.12-2.64.48.4.32,2.61-.17,2.64.48l-2.63.48c.81.38,1.94-.27,2.64.48l-2.64.12c-.13,1.24,2.38-.22,2.64.96-.59.19-3.09-.47-2.64.48.58.2,2.55-.49,2.4.48-.11.08-3.34-.24-2.4.48.81.13,2.17-.4,2.64.48-.59.19-3.09-.47-2.64.48.81.13,2.17-.4,2.64.48-.59.19-3.09-.47-2.64.48,1.22.1,2.17-.44,2.88.72v-9.84h-1.44v-3.36ZM85.02,41.18v-8.4h-3.12s0-1.2,0-1.2h-1.68s0,1.44,0,1.44l-2.64.12c-.01.83,2.21.15,2.88.36v-1.44s1.2,0,1.2,0v1.2s2.85.03,2.85.03c.32.2.04,6.57.12,7.45.03.34-.39.52.39.44ZM94.14,32.06v9.84h.48v-8.4h2.16s-.72-.72-.72-.72c3.34-.43,1.86,1.92,2.76,3.84l.12-1.2c1.38-.28,1.75.32,2.77.96l2.27-.23c-3.26.64-2.58-1.71-5.04-1.2.32-2.16-.98-2.92-2.99-2.66l-.15.71-1.19.03v-1.44s-2.65.11-2.65.11l.02,10.21c.95-.4.34-1.09.34-1.32,0-.27.66-.5-.1-.96,1.4-.62-.34-.42.01-1.07l.47-.13v-.35s-.49-.13-.49-.13v-.35s.49-.13.49-.13v-.35s-.49-.13-.49-.13v-.35s.49-.13.49-.13v-.35s-.49-.13-.49-.13v-.35s.49-.13.49-.13v-.35s-.48-.01-.48-.01v-.47s.47-.12.47-.12c-.77-.47-.1-.7-.1-.95,0-.23-.67-1-.39-1.57h1.92ZM7.98,31.82v6.48h.48v-6.24h1.44s0-.24,0-.24h-1.92ZM131.1,33.98h3.36v2.99s-.72.6-.72.6h.96s.12,2.64.12,2.64c.74.18.28-2.28.38-2.78-.06-.46-.46-.23-.52-.69-.07-.54.14-3.14.02-3.26l-2.97-.04-.39-1.03c1.14-.22,2.23-.48,2.88.59v-1.2s-3.12,0-3.12,0v2.16ZM146.22,31.82h-7.2v8.64c1.27-2.12.06-5.62.34-8.17l3.5-.23v5.52h.48v-5.52c.86.11,2.01-.32,2.64.36v5.88c-2.48-.1-4.78-.39-4.32,2.88h-5.28v3.36c1.06.12.24-2.13.48-2.88l.96.96.48-.96.36.96.6-.96.36.96.6-.96.12.96.6-.96.48.96.03-.95.71-.14c.05-.89-.44-2.5.83-2.74.53-.1,4.94-.06,5.17.1l.22,2.3c.12.12,2.43-.12,2.96,0,.19.05.06.44.51.49,1.18.15,7.77-.31,8.06-.02v2.88c.44-.09.45-.47.49-.83.43-3.72-1.23-2.03-1.45-2.29-.57-1.5,6.07-2.55,7.2-2.4v3.84h.48v-4.32c-2.01-.32-6.24,1.01-8,1.67-.3.17-.1.71-.27.99l-2.77.22v-1.44s-2.64,0-2.64,0c-.93.71,2.08.39,2.16.48v.96s-3.12,0-3.12,0l-.13-.74-3-.1-.17-.24c.64-1.6-.59-2.22-2.06-2.09l-.4-.32v-6.12ZM7.26,32.3H3.18v6h.48v-5.52h3.6v-.48ZM129.18,32.3c-1.49.33-2.56,3.18-3.71,4.33-1.36.52-.73,1.67-.85,2.86.69.9.4-1.84.48-1.92l2.51.02.26-.75h1.9s.26.75.26.75l2.51-.02c.2.08-.44,3.33.48,2.64-.14-.83.2-2.22,0-2.95-1.5-1.32-2.75-3.25-3.85-4.97ZM135.66,32.66v7.32h.48v-7.2h2.16c-.19-.75-2.48-.63-2.64-.12ZM148.14,33.98v3.6c1.03.37.2-2.94.48-3.12h2.64s0-1.68,0-1.68c4.25-.51,1.48,1.99,6,1.44v6.24h.48v-6.72l-2.75.02c-.08-1.11-1-.38-.88-1.42l-3.11.07-.23,1.57h-2.64ZM53.34,33.02v8.88h.48v-8.4l1.22.11.19,1.18.98.14-.69-.49-.02-1.43h-2.16ZM120.3,33.02h-4.56v2.4c.96-.21.15-1.84.24-1.92h1.3c.09,2.5.75,2.88.62,0l1.91.02.13.7.36-1.2ZM41.58,33.26c-.27.17-8.28-.46-7.92.48h1.44v6h.48v-6h.72v6h.48v-6h.72v6h.48v-6h.72v6h.48v-6h2.16s0,.72,0,.72h-1.2c.17.36-.45,5.7.48,5.52v-5.04h12v-.48h-11.04v-1.2ZM82.14,33.5h-.48v7.68h.48v-7.68ZM138.22,34.22c.01-.93-1.45-.93-1.44,0-.01.93,1.45.93,1.44,0ZM114.78,36.38h5.28l.14-1.2h2.26s0,1.21,0,1.21h1.44s-.96-.24-.96-.24l-.26-2.14-1.52-.04-.15.71-1.19.03-.03,1.04-.37.37c-1.38.26-3.7-.69-4.64.27ZM79.5,44.54c-.44-2.18,1.6-11.03-2.88-9.84-.17,1.08,1.81-.13,1.92,1.08,0,.43-2.22-.39-1.92.6l2.16.12c.26.9-2.46-.26-2.16.84l2.4.12-2.4.6h2.4c.48,1.68-2.02-.29-2.64.96h2.64c.09,1.14-2.06.23-2.4.48-.23,1.04,2.26.12,2.4.6.03.81-1.81.17-2.4.36-.23,1.04,2.26.12,2.4.6.03.81-1.81.17-2.4.36-.23,1.04,2.26.12,2.4.6.03.81-1.81.17-2.4.36-.23,1.04,2.26.12,2.4.6.09,1.07-2.65-.44-2.4.84h2.27s.61.72.61.72ZM174.3,35.9c-1.61.06-3.21-.29-4.67.49-.58.08-3.37-.14-3.49-.01.08.49-.33,1.39.48,1.2v-.72h3.48c.09,0,.91-.85,1.56-.48v3.36h.48v-3.36h1.92v3.84h.24v-4.32ZM120.54,37.34h-9.12v.48h8.64v5.04h.48v-5.52ZM12.06,40.46c-.53-.81-2.25-.19-3-.22-1.71.07-4.21-.88-5.64.22h8.64ZM28.38,40.46c-.18-.67-.49-.24-.6-.24-1.01.14-7.29-.24-8.04,0v.24s8.64,0,8.64,0ZM134.7,41.18v3.36h.48v-3.84l-5.63.02-.26-.75-6.59.02v2.88s.24-2.4.24-2.4l5.87-.02.26.75,5.63-.02ZM165.78,43.58h5.64v-2.64s6.96.72,6.96.72v2.88c.87.72.47-2.94.37-3.13l-7.47-.88c-.63.11-.26,2.25-.35,2.82l-5.76-.24.24,1.44.36-.96ZM42.54,40.7h-7.44v.96h-4.56v.48h5.04v-.96h6.48v1.68h12.48c.14.51-.41,1.88.48,1.68-.06-.72.27-1.65-.36-2.16h-12.12v-1.68ZM12.06,41.18H3.42v.48h8.64v-.48ZM28.38,41.18h-8.64v.48h8.64v-.48ZM89.34,41.66h-9.12v2.88c.64.84.5-2.24.48-2.4h8.16v1.2h12v-1.2h6.24c-.02.16-.16,3.24.48,2.4-.12-.92.34-2.18-.36-2.88h-6.84v1.44h-10.68l-.36-1.44ZM118.38,42.14h-7.2v2.4c.92.19.32-1.39.48-1.92h6.48v.96h14.4v.96s.48,0,.48,0v-1.2s-14.28,0-14.28,0l-.36-1.2ZM12.06,42.38H3.42v.48h8.64v-.48ZM28.38,42.38h-8.64v.48h8.64v-.48ZM180.84,45.38H0"/>
  <path class="cls-1" d="M74.22,31.34v3.36h1.44v9.84c-.71-1.16-1.66-.62-2.88-.72-.45-.96,2.05-.29,2.64-.48-.47-.87-1.83-.34-2.64-.48-.45-.96,2.05-.29,2.64-.48-.47-.87-1.83-.34-2.64-.48-.94-.72,2.29-.4,2.4-.48.15-.97-1.82-.28-2.4-.48-.45-.96,2.05-.29,2.64-.48-.26-1.17-2.77.28-2.64-.96l2.64-.12c-.7-.75-1.82-.1-2.64-.48l2.63-.48c-.03-.65-2.23-.16-2.64-.48,0-.36,2.33.23,2.64-.48.01-.56-2.35.04-2.63-.12-.56-1.09,2.51.12,2.64-.96l-2.64-.12c-.03-.82,1.81-.16,2.4-.36v-.72s-3.12,0-3.12,0v6.72h-.48v-6.72h-14.16v9.36h-.48v-9.84h.96s0-1.68,0-1.68h3.96l.36.36-.48.84v-.72h-3.36v1.2h7.68l.1-1.22,1.07-.26.03-.68h3.6v-1.2h3.36ZM71.34,33.02h-3.6l-.02.69-1.19.03v.96h7.2v-2.88s-2.4,0-2.4,0v1.2Z"/>
  <path class="cls-1" d="M146.22,31.82v6.12l.4.32c1.47-.14,2.7.48,2.06,2.09l.17.24,3,.1.13.74h3.12s0-.96,0-.96c-.08-.09-3.09.23-2.16-.48h2.64s0,1.44,0,1.44l2.77-.22c.17-.28-.03-.82.27-.99,1.78-.66,5.97-1.98,8-1.67v4.32h-.48v-3.84c-1.13-.15-7.76.9-7.2,2.4.22.26,1.88-1.43,1.45,2.29-.04.36-.05.74-.49.83v-2.88c-.29-.28-6.88.17-8.06.02-.44-.06-.31-.45-.51-.49-.53-.12-2.83.12-2.96,0l-.22-2.3c-.23-.16-4.64-.2-5.17-.1-1.27.24-.78,1.85-.83,2.74l-.71.14-.03.95-.48-.96-.6.96-.12-.96-.6.96-.36-.96-.6.96-.36-.96-.48.96-.96-.96c-.24.74.58,2.99-.48,2.88v-3.36h5.28c-.46-3.27,1.84-2.98,4.32-2.88v-5.88c-.63-.68-1.78-.25-2.64-.36v5.52h-.48v-5.52l-3.5.23c-.29,2.55.93,6.05-.34,8.17v-8.64h7.2Z"/>
  <path class="cls-1" d="M108.78,28.94v7.68h-.48v-7.44h-.96s0,.81,0,.81l.49.27-.48.12v.48s.48.12.48.12l-.48.12.48.36-.48.6.48.12-.48.12v.48s.48.12.48.12l-.48.12v.48l.48.12-.48.12v.48s.48.12.48.12l-.48.12.48.6-.48.36.48.24c-.66-.1-.5.42-.48.96l-.72-.96-.12.96-.13-.95-.71-.13.72-.12-.72-.24v-.48l.72-.24-.72-.12.72-.48-.72-.24c1.83-.45,0-.63,0-.72l.72-.24-.72-.48.72-.12-.72-.24v-.48l.72-.24-.72-.12.72-.12v-.48s-.72-.12-.72-.12l.7-.14.02-.94h-1.2s0,7.92,0,7.92h4.44c.06,0,.84.78.84.84v6.6h-.48c-.16-.59.49-6.93-.6-6.96,0,0-12,0-12,0l-.36.36v4.2h-.48v-4.56c.16-.84,7.57-.37,8.16-.48v-8.16h4.08Z"/>
  <path class="cls-1" d="M129.66,19.34v.96s1.44,0,1.44,0l-2.16,1.2c-.22.85.68.27.93.51.07.07-.02.41.1.6.11.16,1.11.24-.08.69v.35s.49.13.49.13v.35s-.49.13-.49.13v.36s.49.12.49.12l-.48.12v.48s.47.01.47.01v.35s-.46.13-.46.13v.47s.47,0,.47,0c-.82.56.07,1.11,0,1.19h-.48s0,.48,0,.48h.46s.02.36.02.36l-.48.12v.48s.48.12.48.12l-.48.12v.48s.47.01.47.01c.24.79-.7.13-.47.95l.48.12-.49.84-.48-.13v-8.99s-4.31,0-4.31,0c-.03.58.36,1.85.36,2.28,0,.53-.83,1.51.12,1.68-.65.48-.37.53,0,1.08-.93-.11-.17,1.1-.11,1.56.03.21-.6.47.11,1.07-.77-.18-.4,1.26,0,1.57-1,.14-.06,1.28-.11,1.67-.7.55.13,2.44-.85,2.29v-2s-.48-.27-.48-.27l.48-.12v-.48s-.48-.12-.48-.12l.02-.35.47-.13v-.36s-.48,0-.48,0l.48-.72h-.48s0-.48,0-.48h.46s0-.48,0-.48l-.47-.13v-.35s.49-.13.49-.13v-.36s-.49-.12-.49-.12l.48-.12v-.48s-.47-.01-.47-.01v-.35s.46-.13.46-.13v-.47s-.47,0-.47,0c.82-.56-.07-1.11,0-1.19h.48s0-.48,0-.48h-.46s-.02-.36-.02-.36l.48-.12v-.48s-.48-.12-.48-.12l.48-.12v-.48s-.47-.01-.47-.01c-.35-.66,1.39-.45-.01-1.07.39-.15.42-.97.52-1.05s1.5.07.92-.51c-.16-.17-1.79-.54-1.92-1.2l1.17-.04.39-.92h4.44ZM125.34,19.82v.48h3.84v-.48h-3.84ZM129.42,20.78h-4.32c.28.6,1.16.15.98,1.17l2.03.05,1.31-1.22Z"/>
  <path class="cls-1" d="M41.58,33.26v1.2h11.04v.48h-12v5.04c-.93.2-.31-5.18-.48-5.52h1.2s0-.72,0-.72h-2.16s0,6,0,6h-.48v-6h-.72v6h-.48v-6h-.72v6h-.48v-6h-.72v6h-.48v-6h-1.44c-.38-.94,7.69-.31,7.92-.48Z"/>
  <path class="cls-1" d="M94.14,32.06h-1.92c-.29.57.39,1.34.39,1.57,0,.25-.67.48.1.95l-.48.12v.47s.47.01.47.01v.35s-.46.13-.46.13v.35s.46.13.46.13v.35s-.46.13-.46.13v.35s.46.13.46.13v.35s-.46.13-.46.13v.35s.46.13.46.13v.35s-.46.13-.46.13c-.35.66,1.39.45-.01,1.07.76.46.1.69.1.96,0,.23.61.92-.34,1.32l-.02-10.21,2.66-.11v1.44s1.18-.03,1.18-.03l.15-.71c2.01-.26,3.31.49,2.99,2.66,2.44-.53,1.75,1.83,5.04,1.2l-2.27.23c-1.01-.63-1.39-1.24-2.77-.96l-.12,1.2c-.9-1.91.58-4.27-2.76-3.84l.72.72h-2.16v8.4h-.48v-9.84Z"/>
  <path class="cls-1" d="M109.26,28.1l1.19-.37v-1.19s1.93,0,1.93,0v1.92c.58.02,1.29-.19,1.68.36-.18.28.47,8.15-.48,7.8v-7.68h-1.92v7.68c-1.42-.49.02-6.28-.5-8.03l.71-.15.04-1.26-.83-.39c-.54.29-.37.93-.38,1.43h-.96s0,8.4,0,8.4c-.99.32-.28-8.25-.48-8.52Z"/>
  <path class="cls-1" d="M79.5,44.54l-.61-.74h-2.27c-.25-1.27,2.48.25,2.4-.82-.14-.48-2.63.44-2.4-.6.59-.19,2.43.46,2.4-.36-.14-.48-2.63.44-2.4-.6.59-.19,2.43.46,2.4-.36-.14-.48-2.63.44-2.4-.6.59-.19,2.43.46,2.4-.36-.14-.48-2.63.44-2.4-.6.34-.25,2.49.65,2.4-.48h-2.64c.62-1.26,3.12.72,2.64-.96h-2.4s2.4-.6,2.4-.6l-2.4-.12c-.3-1.1,2.42.07,2.16-.84l-2.16-.12c-.3-.99,1.93-.17,1.92-.6-.11-1.21-2.09,0-1.92-1.08,4.48-1.21,2.44,7.68,2.88,9.84Z"/>
  <polygon class="cls-1" points="85.02 27.26 85.02 28.23 86.46 28.22 86.46 34.22 87.66 34.22 87.66 35.9 91.5 35.9 91.5 36.38 87.42 36.38 87.31 34.7 86.46 34.46 86.46 41.18 85.98 41.18 85.98 28.7 84.77 28.59 84.78 27.74 81.18 27.74 81.18 28.71 79.5 28.7 79.5 32.54 79.02 32.54 79.02 28.22 80.7 28.23 80.7 27.26 85.02 27.26"/>
  <path class="cls-1" d="M68.46,25.34v6.48h-.48c.06,0-.04-5.75,0-6h-.72v5.28h-.48v-3.84h-3.36v6.96h-.48v-6.96h-.72c-.17.37.45,5.45-.48,5.28v-5.76h5.04v-1.44s1.68,0,1.68,0Z"/>
  <path class="cls-1" d="M89.34,41.66l.36,1.44h10.68v-1.44h6.84c.7.7.24,1.95.36,2.88-.64.84-.5-2.24-.48-2.4h-6.24v1.2h-12v-1.2h-8.16c.02.16.16,3.24-.48,2.4v-2.88s9.12,0,9.12,0Z"/>
  <path class="cls-1" d="M42.54,40.7v1.68h12.12c.63.51.29,1.44.36,2.16-.89.2-.34-1.17-.48-1.68h-12.48v-1.68h-6.48v.96h-5.04v-.48h4.56v-.96h7.44Z"/>
  <path class="cls-1" d="M129.18,32.3c1.1,1.72,2.34,3.65,3.85,4.97.2.73-.14,2.12,0,2.95-.92.69-.28-2.56-.48-2.64l-2.51.02-.26-.75h-1.9s-.26.75-.26.75l-2.51-.02c-.08.08.21,2.82-.48,1.92.13-1.19-.52-2.34.85-2.86,1.15-1.16,2.22-4,3.7-4.33ZM132.06,37.1l-3-4.08-3.48,4.08,1.66-.03.15-.71h2.62s.26.75.26.75l1.79-.02Z"/>
  <path class="cls-1" d="M54.78,23.9l-.24.96c2.41-.15,1.57,2.57,1.96,3.69,1.51.76.77,2.53.92,4-1.07.57-.01-2.99-.72-3.24,0,0-1.44-.36-1.44-.36-.19.73.4,2.28-.24,2.64v-2.88s-3.12,0-3.12,0c-.26-.63.43-.38.48-.63.24-1.15-.3-3.42,1.68-3.21l-.14-.72.86-.24ZM55.46,25.38l-2.25.19-.35,2.65c1.52.3.54-.62,1.44-1.2v1.2s.72,0,.72,0l.24-1.92c.08.75-.38,2.15.72,2.16.07-1.11.06-2.1-.52-3.08Z"/>
  <path class="cls-1" d="M148.14,33.98h2.64s.23-1.57.23-1.57l3.11-.07c-.12,1.04.8.31.88,1.42l2.75-.02v6.72h-.48v-6.24c-4.52.55-1.75-1.95-6-1.44v1.68s-2.64,0-2.64,0c-.28.19.55,3.48-.48,3.12v-3.6Z"/>
  <path class="cls-1" d="M146.94,28.82c1-1.68,3.38-1.5,4.93-.61v3.37c-1.2-.19.74-3.57-1.33-3.36-.08.09.23,3.09-.48,2.16v-2.4c-1.11.05.11,4.94-.72,5.28v-4.92l-.59-.37c-.25,0-1.33.77-1.33.85v7.32h-.48c.34-1.89-.46-5.69,0-7.32Z"/>
  <path class="cls-1" d="M118.38,42.14l.36,1.2h14.28v1.2s-.48,0-.48,0v-.96h-14.4v-.96h-6.48c-.16.53.44,2.11-.48,1.92v-2.4s7.2,0,7.2,0Z"/>
  <path class="cls-1" d="M74.94,27.74v3.84h1.92c-.12.84.37,2.22-.48,2.64v-2.16s-1.3,0-1.3,0l-.14,2.16c-1.18-.52-.17-4.22-.23-5.4l-.37-.6h-3.96v3.84c-.91.09-.32-3.57-.48-3.96l.36-.36h4.68Z"/>
  <polygon class="cls-1" points="134.7 41.18 129.07 41.2 128.81 40.45 122.94 40.46 122.7 42.86 122.7 39.98 129.29 39.97 129.55 40.72 135.18 40.7 135.18 44.54 134.7 44.54 134.7 41.18"/>
  <path class="cls-1" d="M85.02,41.18c-.78.07-.36-.1-.39-.44-.09-.88.2-7.25-.12-7.45l-2.85-.03v-1.2s-1.2,0-1.2,0v1.44c-.67-.21-2.89.48-2.88-.36l2.64-.12v-1.44s1.68,0,1.68,0v1.2s3.12,0,3.12,0v8.4Z"/>
  <polygon class="cls-1" points="51.18 28.22 51.18 33.5 50.7 33.5 50.7 28.7 46.14 28.7 46.14 33.5 45.66 33.5 45.66 28.22 51.18 28.22"/>
  <path class="cls-1" d="M136.14,28.46h1.92s0-1.44,0-1.44h2.14s.04,1.18.04,1.18h.7s-.01,1.82-.01,1.82l3.14.23v.84c-.72.18-.25-.43-.82-.5-.81-.1-2.02-.04-2.78.26.46-2.76-1.06-1.87-.72-3.6h-1.2s-.22,1.58-.22,1.58l-1.7.1c-.24.23.48,2.83-.48,3.12v-3.6Z"/>
  <path class="cls-1" d="M131.1,33.98v-2.16s3.12,0,3.12,0v1.2c-.65-1.07-1.74-.81-2.88-.59l.39,1.03,2.97.04c.12.12-.09,2.72-.02,3.26.06.46.46.23.52.69-.1.51.37,2.94-.38,2.78l-.12-2.64h-.96s.73-.6.73-.6v-2.99h-3.37Z"/>
  <polygon class="cls-1" points="120.54 37.34 120.54 42.86 120.06 42.86 120.06 37.82 111.42 37.82 111.42 37.34 120.54 37.34"/>
  <polygon class="cls-1" points="53.34 33.02 55.5 33.02 55.53 34.45 56.22 34.94 55.23 34.8 55.04 33.62 53.82 33.5 53.82 41.9 53.34 41.9 53.34 33.02"/>
  <path class="cls-1" d="M114.78,36.38c.94-.96,3.26-.02,4.64-.27l.37-.37.03-1.04,1.19-.03.15-.71,1.52.04.26,2.14.96.24h-1.44s0-1.2,0-1.2h-2.26s-.14,1.2-.14,1.2h-5.28Z"/>
  <path class="cls-1" d="M135.66,32.66c.16-.51,2.45-.63,2.64.12h-2.16v7.2h-.48v-7.32Z"/>
  <path class="cls-1" d="M120.3,33.02l-.36,1.2-.13-.7-1.91-.02c.13,2.88-.52,2.51-.62,0h-1.3c-.09.08.72,1.71-.24,1.92v-2.4s4.56,0,4.56,0Z"/>
  <rect class="cls-1" x="81.66" y="33.5" width=".48" height="7.68"/>
  <path class="cls-1" d="M59.82,32.54c-1.11-1.54.16-4.56-.25-6.58.73,0,.88-.76,1.09-.86.84-.4.29.98,1.32.84-.06.78-1.69.18-2.16.36v6.24Z"/>
  <path class="cls-1" d="M138.22,34.22c.01.93-1.45.93-1.44,0-.01-.93,1.45-.93,1.44,0Z"/>
  <path class="cls-1" d="M31.02.14h1.2s-.02,2.27-.02,2.27l.75.26-.02,13.55,3.84.48v12.96l1.42-.02.02-1.42h4.08l.23,1.57,1.78-.1.4.33v3.48h-.48v-3.36l-1.7.1-.46,2.05-.23-2.05-2.42-.1v-1.44s-.96,0-.96,0l.24,3.84c-1.01.18-.23-2.16-.48-2.4h-1.3c-.51.07.43,2.64-.62,2.4v-15.6l-3.36-.24v13.68l-.24-1.2c-.64-.04-1.44.22-1.92-.36l1.52-.15c1.22-1.28-.33-1.6-1.52-1.41.16-.81,1.79-.34,1.92-.48v-1.2c-.14-.14-1.76.33-1.92-.48h1.92s-.23-1.34-.23-1.34l-1.7-.22c1.16-.1,2.24.04,1.92-1.56-2.73.22-2.62-.71,0-.48l-.22-1.34c-.57-.4-1.43.48-1.7-.34,1.18,0,2.23.2,1.92-1.44l-1.92-.12c.48-.58,1.28-.32,1.92-.36v-1.2c-.14-.14-1.76.33-1.92-.48l1.69-.11.21-.95c-.2-.62-1.4-.34-1.9-.39.16-.81,1.78-.34,1.92-.48.29-2.68-.95-1.7-2.89-1.81l-.23,1.09-.24-.72h-.72s.03,1.41.03,1.41l.94.43v16.64s3.35,0,3.35,0v9.84l-.24-.96h-.96s.96-.48.96-.48l-.96-.48.96-.96h-.96s.96-.96.96-.96h-.96s.96-.96.96-.96l-.96-.36.96-.6-.96-.36.96-.6-.96-.36.96-.6-.96-.36.96-.12v-1.2s-3.12,0-3.12,0c-.2.86.94.37,1.44.48v3.84h-.24v-3.36h-1.2c.09,1.31.15,4.27-.24,5.52V15.14l-4.08-1.56v24.48h-.48V13.34c-.73.15-3.34-.37-3.58.4-.19,3.31.77,21.75-.26,24.32V11.42h-2.88v26.64h-.48V15.62s-.32-.38-.48-.36v22.8h-.48V15.02h.96s0-1.44,0-1.44h-2.16s0-2.4,0-2.4h-.72v26.88h-.48V11.18h-3.36v26.88h-.24V10.7h5.04v2.4s1.92,0,1.92,0l.03-1.77.36-.37,3.44.22c.43-1.53-.2-3.86.48-5.04l.24,4.8,2.17.1.23,1.58c-.89.26-.3-1.02-.48-1.2l-2.76.23-.12,1.21h3.96c.2,0,2.84,1.39,3,1.2-.28-1.92,1.37-2.04,2.88-1.92V.14ZM31.98.62h-.48v11.52l1.2-.36V3.02h-.48v6.72h-.24V.62ZM42.06,28.7h-2.16c-.28,1.47.93.97,1.93,1.1l.23-1.1Z"/>
  <path class="cls-1" d="M15.66,39.02h13.92v5.52h-.24v-5.04h-13.68l.22,1.1,1.22.1v2.4s1.68,0,1.68,0v1.44c-.86.23-.33-.81-.48-.96h-1.68s0-2.4,0-2.4h-2.4v3.36c-.89-.77.1-2.66-.24-3.84h1.44s0-1.2,0-1.2H2.94v5.04c-.63.27-.73-5.57-.12-5.52,0,0,12.6,0,12.6,0v-9.6h.24v9.6Z"/>
  <rect class="cls-1" x="34.38" y="18.14" width=".48" height="14.4"/>
  <rect class="cls-1" x="35.34" y="18.14" width=".48" height="14.4"/>
  <path class="cls-1" d="M33.9,32.54h-.48v-14.04s.32-.38.48-.36v14.4Z"/>
  <path class="cls-1" d="M9.42,26.54c.66.98-3.04.23-3.12.48v1.92h3.36v1.92c-.92.27-.28-1.24-.48-1.44h-2.88c-.24.24.51,2.41-.48,2.16v-5.04h3.6Z"/>
  <rect class="cls-1" x="25.74" y="14.3" width=".48" height="12"/>
  <polygon class="cls-1" points="7.26 32.3 7.26 32.78 3.66 32.78 3.66 38.3 3.18 38.3 3.18 32.3 7.26 32.3"/>
  <path class="cls-1" d="M27.18,19.34v12c-.77-3.39-.29-7.89-.48-11.64l.48-.36Z"/>
  <rect class="cls-1" x="19.74" y="41.18" width="8.64" height=".48"/>
  <rect class="cls-1" x="3.42" y="41.18" width="8.64" height=".48"/>
  <rect class="cls-1" x="3.42" y="42.38" width="8.64" height=".48"/>
  <rect class="cls-1" x="19.74" y="42.38" width="8.64" height=".48"/>
  <polygon class="cls-1" points="7.98 31.82 9.9 31.83 9.9 32.06 8.46 32.06 8.46 38.3 7.98 38.3 7.98 31.82"/>
  <path class="cls-1" d="M12.06,40.46H3.42c1.43-1.1,3.93-.15,5.64-.22.75.03,2.47-.59,3,.22Z"/>
  <rect class="cls-1" x="27.9" y="24.38" width=".33" height="12"/>
  <rect class="cls-1" x="15.42" y="15.02" width=".24" height="12"/>
  <path class="cls-1" d="M28.38,40.46h-8.64v-.24c.71-.24,7.07.14,8.04,0,.12,0,.42-.43.6.24Z"/>
  <polygon class="cls-1" points="31.98 .62 31.98 9.74 32.22 9.74 32.22 3.02 32.7 3.02 32.7 11.78 31.5 12.14 31.5 .62 31.98 .62"/>
  <path class="cls-1" d="M42.06,28.7l-.23,1.1c-1-.12-2.2.38-1.93-1.1h2.16Z"/>
  <polygon class="cls-1" points="71.34 33.02 71.34 31.82 73.74 31.82 73.74 34.7 66.54 34.7 66.54 33.74 67.72 33.71 67.74 33.02 71.34 33.02"/>
  <path class="cls-1" d="M129.42,20.78l-1.31,1.22-2.03-.05c.19-1.02-.7-.57-.98-1.17h4.32Z"/>
  <rect class="cls-1" x="125.34" y="19.82" width="3.84" height=".48"/>
  <polygon class="cls-1" points="132.06 37.1 130.27 37.12 130.01 36.37 127.39 36.37 127.25 37.08 125.58 37.1 129.06 33.02 132.06 37.1"/>
  <path class="cls-1" d="M55.46,25.38c.58.98.58,1.96.52,3.08-1.1,0-.64-1.41-.72-2.16l-.24,1.92h-.72s0-1.2,0-1.2c-.9.58.08,1.51-1.44,1.2l.35-2.65,2.25-.19Z"/>
  <path class="cls-1" d="M163.02,19.1h1.68c.41,1.45-.48,1.35-.48,1.44v13.44h1.2s-.24-14.88-.24-14.88h1.68s0,12.96,0,12.96h-.24v-12.48h-.96v14.4h.96s0,.96,0,.96c.22.23,2.84-.47,3.12.48h-3.6l-.14-.96h-2.26s0,.96,0,.96h-3.36v3.6h-.48v-3.72c.79-.73,2.19-.22,3.21-.34.06-.31.63-1.03.63-1.1v-13.44c0-.11.67-.43.48-.84h-.96s0,13.44,0,13.44h-.24v-13.92Z"/>
  <polygon class="cls-1" points="169.98 34.22 169.5 34.22 169.5 19.1 168.54 19.1 168.54 33.98 168.06 33.98 168.06 18.62 169.58 18.66 169.98 18.98 169.98 34.22"/>
  <path class="cls-1" d="M164.46,16.22c.37.31-1.08,1.34-1.44.96l.39.97h2.84s.26-.75.26-.75c.51.08,1.15-.09,1.62.02.09.02.63.92,1.6.47-.28-1.61-2.87-1.24-3.94-1.21-.12.03-.2,1.24-1.09.97-.28-.95.94-.68.48-1.44,1.17.12,2.61-.16,3.74-.02.49.06.22.7.81.27-.01.8.81.89.49,1.92l-2.27.02-.15-.71-.81-.05-.48.9-3.49.08-.12-.73c-.22.86-1.44.93-1.8.24l1.18-.03c0-1.57.85-1.56,2.18-1.89Z"/>
  <path class="cls-1" d="M165.78,43.58l-.36.96-.24-1.44,5.76.24c.09-.57-.28-2.71.35-2.82l7.47.88c.1.18.49,3.86-.37,3.13v-2.88s-6.96-.72-6.96-.72v2.64h-5.64Z"/>
  <path class="cls-1" d="M174.3,35.9v4.32h-.24v-3.84h-1.92v3.36h-.48v-3.36c-.65-.37-1.47.48-1.56.48h-3.48v.72c-.81.19-.4-.71-.48-1.2.12-.12,2.92.09,3.49.01,1.46-.78,3.06-.44,4.67-.49Z"/>
  <path class="cls-1" d="M161.34,19.1h1.2c.01.53-.96.42-.96.48v14.64h-.24v-15.12Z"/>
</svg>